<?xml version="1.0" standalone="no"?>
<!DOCTYPE svg PUBLIC "-//W3C//DTD SVG 20010904//EN"
 "http://www.w3.org/TR/2001/REC-SVG-20010904/DTD/svg10.dtd">
<svg version="1.0" xmlns="http://www.w3.org/2000/svg"
 width="4167.000000pt" height="4167.000000pt" viewBox="0 0 4167.000000 4167.000000"
 preserveAspectRatio="xMidYMid meet">

<g transform="translate(0.000000,4167.000000) scale(0.100000,-0.100000)"
fill="#ffffff" stroke="none">
<path d="M19506 38533 c-4 -4 -105 -11 -224 -14 -351 -11 -765 -51 -1077 -105
-198 -34 -331 -66 -540 -130 -27 -8 -63 -19 -80 -24 -41 -11 -94 -30 -133 -46
-18 -8 -41 -14 -52 -14 -10 0 -22 -4 -25 -10 -3 -5 -13 -10 -22 -10 -8 0 -29
-6 -46 -14 -18 -7 -54 -21 -82 -31 -27 -10 -63 -23 -80 -30 -16 -7 -50 -20
-75 -30 -25 -10 -63 -26 -86 -36 -22 -11 -43 -19 -47 -19 -4 0 -37 -14 -74
-31 -38 -17 -88 -40 -113 -51 -83 -37 -404 -197 -470 -234 -36 -20 -94 -52
-130 -72 -208 -113 -609 -377 -830 -546 -312 -239 -487 -392 -775 -680 -188
-188 -346 -357 -441 -472 -322 -391 -559 -730 -776 -1114 -147 -259 -232 -428
-363 -725 -8 -16 -25 -56 -39 -88 -14 -32 -26 -62 -26 -68 0 -6 -6 -23 -14
-37 -45 -85 -197 -534 -261 -772 -9 -36 -21 -76 -26 -90 -7 -23 -36 -142 -59
-245 -158 -710 -197 -1600 -109 -2500 11 -110 22 -216 24 -235 37 -281 69
-463 124 -710 22 -99 93 -359 109 -400 5 -14 17 -50 27 -80 9 -30 23 -69 31
-87 8 -17 14 -34 14 -37 0 -30 335 -706 574 -1159 33 -62 46 -87 137 -257 31
-58 72 -134 90 -169 19 -34 48 -88 64 -120 17 -31 52 -96 79 -146 27 -49 68
-124 91 -165 23 -41 57 -102 74 -135 18 -33 36 -67 41 -75 10 -17 82 -147 127
-230 17 -30 40 -73 53 -95 12 -22 55 -98 95 -170 83 -150 250 -446 276 -490
10 -16 27 -48 39 -70 53 -96 85 -153 107 -187 12 -21 23 -40 23 -42 0 -3 26
-49 58 -103 33 -54 76 -129 98 -168 21 -38 43 -78 49 -87 5 -9 17 -29 26 -45
9 -15 52 -91 96 -168 44 -77 89 -156 100 -175 11 -19 62 -109 113 -200 87
-154 137 -243 205 -365 15 -27 47 -84 70 -125 24 -41 56 -100 72 -130 17 -30
42 -76 57 -102 55 -101 80 -145 124 -228 25 -47 56 -103 68 -125 27 -48 33
-59 110 -200 81 -151 101 -189 161 -302 28 -54 74 -141 102 -193 73 -136 450
-891 490 -980 63 -140 93 -227 116 -335 91 -432 80 -822 -33 -1205 -90 -307
-244 -590 -476 -875 -59 -72 -281 -291 -360 -355 -82 -67 -228 -172 -276 -199
-180 -100 -348 -174 -490 -214 -163 -46 -257 -64 -440 -82 -182 -19 -312 -19
-515 0 -428 39 -824 130 -1430 331 -108 35 -447 122 -585 148 -47 10 -105 21
-130 27 -25 5 -72 13 -105 18 -33 5 -91 14 -130 20 -268 42 -711 86 -930 93
-144 4 -758 4 -905 0 -261 -8 -758 -67 -1030 -123 -149 -31 -307 -71 -449
-115 -96 -30 -337 -109 -373 -123 -13 -5 -43 -17 -68 -26 -25 -10 -54 -21 -65
-26 -11 -4 -56 -22 -100 -39 -44 -17 -95 -38 -112 -46 -18 -8 -48 -21 -65 -28
-18 -8 -58 -26 -88 -39 -134 -60 -162 -73 -280 -132 -152 -75 -312 -160 -362
-192 -21 -13 -40 -23 -42 -23 -4 0 -141 -83 -324 -195 -89 -55 -418 -284 -522
-364 -77 -59 -135 -106 -350 -281 -37 -30 -112 -95 -166 -145 -615 -559 -1140
-1212 -1539 -1916 -157 -275 -341 -661 -432 -904 -8 -22 -22 -58 -30 -80 -8
-22 -19 -48 -24 -57 -5 -10 -9 -23 -9 -29 0 -6 -6 -25 -14 -42 -21 -48 -113
-329 -147 -452 -84 -303 -124 -524 -169 -935 -47 -428 -61 -1306 -29 -1820 22
-356 67 -736 115 -970 19 -94 72 -307 83 -340 5 -14 17 -52 26 -85 28 -96 75
-247 90 -285 7 -19 32 -87 55 -150 184 -507 461 -1047 785 -1530 294 -438 545
-741 954 -1151 457 -456 785 -721 1358 -1093 216 -141 580 -338 880 -477 140
-65 172 -79 177 -79 3 0 31 -12 63 -26 80 -36 105 -47 203 -84 47 -18 94 -36
105 -41 51 -22 298 -103 510 -168 32 -10 245 -61 335 -80 60 -13 215 -40 270
-47 19 -2 82 -11 140 -19 361 -49 533 -58 1105 -58 497 0 662 6 895 32 305 34
382 43 460 56 47 8 105 17 130 21 38 5 246 46 385 75 22 4 76 17 120 29 44 12
95 25 113 30 19 4 46 13 60 18 15 5 54 17 87 27 111 33 240 76 257 86 10 5 22
9 28 9 24 0 462 178 620 252 213 100 501 248 600 308 8 5 78 47 155 93 383
228 780 518 1115 816 226 201 623 609 808 829 283 337 561 741 746 1082 44 81
250 496 283 570 8 19 19 42 23 51 5 9 29 68 55 130 25 63 51 128 59 144 20 44
38 92 101 265 31 85 62 171 69 190 8 19 21 60 31 90 17 55 43 129 117 335 68
188 120 320 210 530 48 110 208 416 268 513 245 391 553 674 970 890 178 92
328 146 585 211 22 5 81 17 131 25 462 78 924 58 1384 -62 52 -13 104 -26 115
-29 37 -9 120 -34 140 -43 11 -5 47 -18 80 -30 33 -11 69 -24 80 -29 11 -5 56
-24 100 -42 359 -151 748 -423 963 -674 76 -87 197 -247 297 -390 72 -103 375
-555 375 -560 0 -2 19 -32 43 -67 23 -35 47 -73 54 -84 6 -10 48 -77 93 -149
45 -71 104 -166 131 -210 27 -44 53 -87 58 -95 50 -81 226 -376 296 -495 48
-82 136 -232 196 -331 60 -100 115 -192 122 -205 12 -23 22 -40 72 -119 13
-19 67 -107 120 -195 54 -88 106 -171 116 -185 22 -33 230 -350 244 -372 30
-50 246 -354 336 -473 366 -486 685 -823 1104 -1167 91 -74 385 -290 490 -359
289 -191 584 -369 810 -490 130 -70 586 -289 601 -289 3 0 26 -9 52 -21 26
-11 56 -24 67 -28 11 -5 34 -14 50 -21 17 -7 41 -16 55 -20 14 -5 50 -18 80
-30 67 -26 292 -101 375 -125 33 -9 71 -21 85 -26 14 -5 79 -23 145 -39 368
-93 772 -159 1125 -185 47 -3 135 -10 195 -15 147 -13 950 -12 1095 0 63 6
176 15 250 21 74 5 149 11 165 14 17 2 59 7 95 10 91 9 417 59 480 75 19 4 55
11 80 15 25 4 61 10 80 15 19 5 67 16 105 25 220 51 491 125 615 170 83 29
107 37 135 45 17 5 55 18 85 30 30 12 64 24 75 27 11 3 25 9 30 13 6 3 33 15
60 25 28 9 78 30 113 46 35 16 66 29 69 29 3 0 31 12 62 26 85 40 244 115 264
125 165 86 279 147 309 166 21 12 40 23 42 23 3 0 22 12 43 26 21 14 47 30 58
35 11 5 34 18 50 29 17 11 43 27 60 36 109 62 431 291 695 495 355 275 835
745 1201 1174 86 101 110 131 243 305 137 180 368 524 446 665 18 33 50 87 70
120 62 103 264 513 329 670 81 194 76 183 127 318 9 23 22 57 30 75 8 18 14
41 14 50 0 10 4 22 9 28 5 5 18 43 31 84 12 41 25 86 30 100 10 29 64 209 85
288 8 28 21 76 29 105 14 47 73 319 110 502 31 152 65 368 90 570 30 243 35
292 42 410 4 66 11 125 16 131 26 33 -18 841 -61 1124 -6 36 -18 117 -27 180
-8 63 -22 147 -29 185 -8 39 -21 108 -30 155 -8 47 -22 117 -31 155 -52 236
-61 270 -79 335 -7 25 -21 74 -30 110 -35 128 -76 265 -84 280 -5 9 -12 31
-16 50 -4 19 -11 40 -15 45 -4 6 -10 21 -13 35 -6 30 -50 149 -107 292 -50
126 -47 119 -109 248 -48 98 -70 140 -156 295 -18 33 -44 80 -58 105 -32 59
-69 126 -127 230 -26 47 -60 108 -75 135 -16 28 -60 106 -98 175 -96 171 -142
253 -185 330 -19 36 -46 82 -59 102 -13 21 -23 40 -23 43 0 2 -20 39 -45 81
-25 41 -45 77 -45 80 0 2 -18 33 -40 69 -22 36 -40 67 -40 70 0 3 -13 26 -28
52 -16 27 -55 95 -87 153 -32 58 -92 164 -133 235 -42 72 -86 150 -100 175
-14 25 -44 79 -67 120 -24 41 -53 93 -65 115 -12 22 -39 69 -60 105 -21 36
-48 83 -60 105 -12 22 -52 92 -88 155 -36 63 -74 131 -85 150 -10 19 -65 116
-122 215 -56 99 -111 196 -122 215 -81 143 -160 281 -178 310 -12 19 -38 64
-57 100 -19 36 -45 81 -57 100 -11 19 -25 44 -31 55 -5 11 -23 43 -40 70 -16
28 -33 57 -37 65 -4 8 -25 47 -48 85 -22 39 -44 77 -48 85 -4 8 -13 24 -20 35
-10 17 -91 160 -147 260 -34 60 -178 311 -199 345 -11 19 -24 42 -28 50 -4 8
-24 43 -45 78 -21 34 -38 64 -38 65 0 2 -65 117 -145 257 -80 139 -145 254
-145 256 0 2 -25 44 -55 94 -30 50 -55 92 -55 95 0 2 -20 38 -45 79 -25 42
-45 79 -45 81 0 3 -11 22 -23 43 -13 20 -36 59 -52 87 -15 27 -70 124 -123
215 -52 91 -106 185 -120 210 -32 57 -169 295 -193 335 -10 17 -24 41 -32 55
-7 14 -44 79 -82 145 -80 141 -80 141 -179 315 -42 74 -81 142 -86 150 -6 8
-13 22 -17 30 -4 8 -31 55 -60 103 -29 48 -53 89 -53 91 0 1 -39 70 -86 152
-47 82 -96 167 -109 189 -12 22 -84 148 -160 280 -76 132 -147 256 -158 275
-10 19 -62 109 -115 200 -52 91 -106 185 -120 210 -40 72 -173 302 -193 335
-11 17 -22 36 -26 44 -3 8 -47 85 -96 170 -50 86 -101 176 -115 201 -29 52
-61 107 -80 135 -6 11 -15 27 -19 35 -4 8 -65 116 -137 240 -71 124 -139 243
-151 265 -12 22 -43 75 -69 118 -25 43 -46 81 -46 83 0 2 -11 22 -25 44 -28
45 -163 278 -208 360 -16 30 -33 60 -37 65 -7 10 -257 444 -308 535 -14 25
-42 72 -62 105 -20 33 -39 67 -43 75 -4 8 -15 29 -26 45 -10 17 -45 77 -78
135 -100 176 -335 583 -354 615 -11 17 -23 39 -29 50 -5 11 -23 43 -39 70 -16
28 -36 61 -44 75 -7 14 -58 102 -112 195 -54 94 -106 184 -115 200 -58 103
-149 260 -187 322 -23 40 -43 75 -43 77 0 3 -26 49 -58 103 -32 54 -87 148
-122 208 -34 61 -77 135 -95 165 -18 30 -45 78 -60 105 -43 79 -136 237 -156
267 -11 15 -19 29 -19 31 0 3 -39 71 -86 153 -47 82 -100 174 -117 204 -17 30
-48 83 -69 118 -21 34 -38 64 -38 66 0 2 -51 91 -113 198 -62 107 -117 201
-121 209 -4 7 -12 23 -19 34 -7 12 -41 70 -76 130 -35 61 -84 143 -108 183
-23 40 -43 74 -43 76 0 4 -143 249 -160 276 -6 8 -13 22 -17 30 -4 8 -24 43
-45 78 -21 34 -38 64 -38 67 0 2 -32 56 -70 120 -39 64 -80 135 -93 157 -12
22 -26 48 -32 57 -5 9 -53 90 -105 181 -52 91 -100 174 -107 185 -7 11 -16 27
-20 35 -4 8 -43 76 -88 150 -45 74 -84 142 -88 150 -4 8 -17 31 -28 50 -45 75
-119 201 -194 330 -67 116 -182 309 -254 430 -11 19 -24 42 -28 50 -4 8 -57
98 -118 200 -61 102 -114 192 -118 200 -4 8 -16 29 -27 45 -11 17 -23 37 -27
45 -4 8 -76 128 -160 267 -84 139 -153 256 -153 259 0 2 -8 17 -19 32 -35 52
-89 137 -111 177 -12 22 -29 52 -38 67 -9 15 -66 108 -126 205 -174 283 -288
461 -454 713 -219 332 -312 465 -493 700 -242 315 -794 877 -1179 1200 -226
189 -227 190 -370 297 -120 88 -386 273 -395 273 -2 0 -30 18 -63 40 -33 21
-88 55 -123 75 -35 20 -77 44 -94 54 -237 140 -623 322 -915 431 -47 18 -94
36 -105 41 -30 13 -165 59 -205 71 -19 5 -69 21 -110 34 -91 30 -146 47 -225
68 -33 9 -73 21 -90 26 -26 8 -101 26 -250 59 -257 59 -740 113 -1180 133
-300 13 -750 20 -759 11z"/>
</g>
</svg>
