<?xml version="1.0" standalone="no"?>
<!DOCTYPE svg PUBLIC "-//W3C//DTD SVG 20010904//EN"
 "http://www.w3.org/TR/2001/REC-SVG-20010904/DTD/svg10.dtd">
<svg version="1.0" xmlns="http://www.w3.org/2000/svg"
 width="2000.000000pt" height="1000.000000pt" viewBox="0 0 2000.000000 1000.000000"
 preserveAspectRatio="xMidYMid meet">

<g transform="translate(0.000000,1000.000000) scale(0.100000,-0.100000)"
fill="#ffffff" stroke="none">
<path d="M5567 7397 c4 -8 703 -1090 1552 -2405 l1545 -2392 423 0 423 0 -2
2403 -3 2402 -417 3 -418 2 -2 -1581 -3 -1582 -1065 1581 -1065 1582 -488 0
c-403 0 -487 -2 -480 -13z"/>
<path d="M10505 7388 c-3 -13 -4 -1094 -3 -2403 l3 -2380 421 -3 420 -2 1545
2392 c849 1315 1548 2397 1552 2405 7 11 -77 13 -480 13 l-488 0 -1065 -1582
-1065 -1581 -3 1581 -2 1582 -415 0 -415 0 -5 -22z"/>
<path d="M2915 7379 c-918 -95 -1689 -688 -2022 -1554 -49 -127 -108 -367
-129 -520 -25 -189 -23 -487 5 -670 76 -508 297 -953 651 -1319 385 -396 839
-627 1415 -718 126 -19 525 -17 665 5 330 51 625 158 906 328 528 319 927 855
1079 1453 55 219 69 341 69 601 0 172 -4 260 -18 350 -161 1056 -984 1875
-2041 2031 -124 18 -459 26 -580 13z m390 -829 c209 -20 362 -63 540 -151 159
-78 286 -170 420 -304 224 -224 369 -487 429 -777 57 -275 39 -579 -49 -845
-106 -319 -333 -609 -635 -810 -409 -273 -968 -328 -1445 -142 -404 157 -768
539 -906 949 -63 190 -73 262 -73 515 0 199 3 243 22 328 70 316 195 542 431
778 148 147 281 245 434 317 254 121 541 170 832 142z"/>
<path d="M16625 7379 c-917 -95 -1690 -689 -2022 -1554 -49 -127 -108 -367
-129 -520 -25 -189 -23 -487 5 -670 76 -508 297 -953 651 -1319 385 -396 839
-627 1415 -718 126 -19 525 -17 665 5 330 51 625 158 906 328 529 319 927 855
1079 1453 55 219 69 341 69 601 0 172 -4 260 -18 350 -161 1056 -984 1875
-2041 2031 -124 18 -459 26 -580 13z m390 -829 c209 -20 362 -63 540 -151 159
-78 286 -170 420 -304 224 -224 369 -487 429 -777 57 -275 39 -579 -49 -845
-106 -319 -333 -609 -635 -810 -409 -273 -968 -328 -1445 -142 -404 157 -768
539 -906 949 -63 189 -73 262 -73 515 0 200 2 243 22 328 71 317 195 542 431
778 148 147 281 245 434 317 254 121 541 170 832 142z"/>
<path d="M6080 3015 l0 -425 425 0 425 0 0 425 0 425 -425 0 -425 0 0 -425z"/>
</g>
</svg>
